/* XPM */
static char *f29dcaf12f6e448ca9a47284d993140f25XFye9CEJjsU5kk[] = {
/* columns rows colors chars-per-pixel */
"64 64 119 2 ",
"   c #160F06",
".  c #171007",
"X  c #1C1307",
"o  c #1C1309",
"O  c #22170A",
"+  c #25190C",
"@  c #2A1D0C",
"#  c #261B10",
"$  c #2A1E11",
"%  c #2F210F",
"&  c #33220E",
"*  c #3A260E",
"=  c #3E280E",
"-  c #2D2011",
";  c #342412",
":  c #3A2711",
">  c #372817",
",  c #3C2A14",
"<  c #3B2B19",
"1  c #452C0F",
"2  c #4A2E0F",
"3  c #4D310F",
"4  c #52330E",
"5  c #432D13",
"6  c #492F10",
"7  c #422E18",
"8  c #453017",
"9  c #4C3214",
"0  c #45311A",
"q  c #4B351B",
"w  c #4F381E",
"e  c #533513",
"r  c #583610",
"t  c #563916",
"y  c #5B3B14",
"u  c #503719",
"i  c #543A1C",
"p  c #5B3D1B",
"a  c #623E14",
"s  c #603F19",
"d  c #4B3720",
"f  c #4E3921",
"g  c #543C21",
"h  c #593F21",
"j  c #5E411E",
"k  c #664014",
"l  c #6C4416",
"z  c #64431C",
"x  c #6A461C",
"c  c #6D481D",
"v  c #704717",
"b  c #794C17",
"n  c #734B1D",
"m  c #7A4E1C",
"M  c #7C511E",
"N  c #5C4223",
"B  c #644522",
"V  c #694720",
"C  c #664825",
"Z  c #6C4A23",
"A  c #624728",
"S  c #654929",
"D  c #6B4D2A",
"F  c #734E23",
"G  c #784F21",
"H  c #714F28",
"J  c #6F512D",
"K  c #765125",
"L  c #7B5324",
"P  c #74522B",
"I  c #7B562A",
"U  c #7E592D",
"Y  c #745430",
"T  c #7C5931",
"R  c #82541D",
"E  c #88571D",
"W  c #8F5B1C",
"Q  c #905C1E",
"!  c #825623",
"~  c #855925",
"^  c #8B5B23",
"/  c #805729",
"(  c #835B2B",
")  c #8A5E2B",
"_  c #915E24",
"`  c #835E32",
"'  c #895F30",
"]  c #87602F",
"[  c #8D612D",
"{  c #936126",
"}  c #93642D",
"|  c #9A672C",
" . c #9B692E",
".. c #866136",
"X. c #8C6334",
"o. c #856138",
"O. c #8C6539",
"+. c #926633",
"@. c #956935",
"#. c #9A6A33",
"$. c #906738",
"%. c #936B3B",
"&. c #9A6E3B",
"*. c #9D713D",
"=. c #A36D2E",
"-. c #A16E33",
";. c #A47135",
":. c #AB7433",
">. c #A3743C",
",. c #A87438",
"<. c #AC7839",
"1. c #B17733",
"2. c #976E40",
"3. c #9D7241",
"4. c #A37540",
"5. c #A77943",
"6. c #A97A43",
"7. c #B48146",
"8. c #BE894C",
/* pixels */
"g Y o.o.` D D D T I I P D C B i : + @ 5 z L ^ ~ ^ R M R y 4 4 r y y a a l a a b ^ { z 5 8 j Z j w 8 i D I J C ..*.>...T Y > - > ",
"Y O.2.%...` T ....` H H C B 7 ; & , 9 z L ^ ^ ^ R M R y 2 2 4 r a v R R R R b E ~ M 1 & * e z K F Z U [ +.H J ] $...S d > - - < ",
"2.3.2.O.O...O.&.&.' ( ' ( K i 7 5 p x G c c n n l k 2 & & 1 4 r a b W W R v v v x 1 O X % p / } @.} [ ] I K J X.$.T N d > > d J ",
"2.2.O.O.....X.&.@.` ` @.+.H u 9 z K L 9 5 9 y e 1 & @ & 1 4 a y a b R v y 4 y r 1 * X O , c { #. .( I L U T X.@.&.P N N N N J T ",
"O.O.` ..` ....@.X./ D ( H 8 q z L ) z & & 5 y z e 2 1 2 e a a l a a r 9 1 1 6 9 3 9 = 8 y L  . .) K K U +.@.@.&.T N A J Y Y T 2.",
"O.T ` O.T T ..X.$.J i q i u V /  .[ x , & 6 x n z e e y e r r e 2 2 e 6 2 3 e a c x y p x ! [ [ I Z U [ #.@.T T N w S U Y T T 2.",
"%...O.O.T ..O.*.$.B - 7 i K [ ;.:.| s ; = t L M k e y e 1 1 1 5 2 t y s l a v ! ~ M y j n K ~ ) K Z I +.@.J i w w j J ..T J T O.",
"5.3.$.O.` I &.>...q 0 i K X.;.:.#.G 9 @ & y m M z a z y e 9 6 a c m R M R ^ _ _ E l z M ~ / / / c V K U K 8 8 i w N U T T Y T 2.",
">.*.X.X.I X.*.( B j z D Z K ] ~ z t , + : t L R n v n a k z x M ^ _ _ ^ _ _ _ R n v L }  .L n B p N V B i ; 8 q N J U J D T X.5.",
"( ..P J ..` ` N 0 N B i 8 q z j 8 8 & + , z ^ _ ! n s x c n M ^ _ _ _ ^ _ ^ m p x n { =.) 9 p x K V j j w q i C D P U P P U %.*.",
"N w q N w 8 0 7 8 j 0 < 8 z K K Z p : & t ~ =.{ m 5 : t n L m / ! G ! ! ! n s t x L } | 9 & 8 V L Z N z B V P U U ( U I J I ] T ",
"N ; , 0 w , , ; 8 i B B K ) [ ( K t 5 p L =.:.! 9 @ & t n M G n n G n m n z p z M ~ { n , * w x K j B P ( ( [ ( U U I I U U ] P ",
"N 8 0 i j 7 9 9 j K ( [ *.:.[ Z p 9 t G  .1.) p @ O , s L L n c F F G G c z x G ~ [ ~ c 8 8 9 B V Z K ] [ K K D j j Z Z U ] ] U ",
"V j B P ( H i N I X.#.;.<. .i 7 5 q C ) :.=.z * X O q n ~ L c Z Z G Z n x x p z x n Z F j u j F L I / ) Z i z i w j Z I ] ] ] U ",
"K K / @.#.V j Z ) #.@.;.+.P , ; , t K | | z , O o & z ~ ) L V G F ! G Z Z p , & : u z x j t j K L K ] L i 8 i j z K I ] ] ( L I ",
"P / [ } I 8 u Z )  .} } [ z ; + , V ) | / u O o @ p / | ( Z z H L ( / G p , X O , j F c t , 8 j B K / V q 9 z K ( ] } [ K K Z K ",
"L / / p , & q F [ } } [ / 5 + + w / -. .z , O % t / #. .L Z Z G ) [ L B 5 O   + q H L V q : 8 t j F L i i z K ) | #.} ( U F Z K ",
"L L F 9 & , t L ) ~ L L p @ o @ z } ;.U 7 O O 5 K } -.+.H I I ( ( I i , + . O 5 F ) L B x B C B V I K i j V L ~ [ | { / Z x Z Z ",
"z K G p @ 9 z F L F V z , o O , K @./ , O o & j L X.[ ( ) X.( I V ; + o + + 5 B / ) H x H I L F K / L z z V n K / { I Z z Z F K ",
"L ( ! z 5 p z p t q 8 , @ O , t I ) z ; , , i Z ) P U ( } ( C , o . o # , p Z I ) ( I K ( ) I V I ) ) Z z z c L L n z x x z c c ",
"G ! ~ z * 5 9 5 9 , , & : , t V F L B p B P ( ( P K I U L w , % o o # 8 C ( ' ( ( ' ' P I L H F ~ [ ~ K x x c n Z x z z z c c n ",
"n L c 9 & & * 9 9 e e t t z h p j H F I @.;.#.U i B P ( D q < < , , q D ' @.X.H I ' +.I C Z F I ~ ~ / K z z z z c z z x n K n F ",
"x c x e O & 5 t z c n K K c q 9 z F ( +.;.>.' N 0 h P U I D B N g N N P ' ..I C H ( +.C t C F Z Z K K n j t y z z k x n n c n n ",
"z x k 9 & = 9 c ~ { { ^ F z 5 p V I ] [ @.@.U , ; i P ] ..X.O.P D 0 i C ' ..' g h I I i 7 q h p j z c c y 8 q t x x v v c z z s ",
"p x c p 1 1 t M { | ^ c s p p V L ) U ] +.X.p $ 7 B ` X.&.>.*.T i 0 N T *.&.C 8 8 C C , , q x V t i c z y 9 3 y k n c v z y e t ",
"y l x 4 * = z R | { x t q t x L / / / [ +./ 7 - w J O.&.3.4.$.N < w T 4.7.T 0 $ , i g w p V ( I i z x c j 9 e y x n v p y e 3 9 ",
"e a e & = 3 c E { ^ z j t t c L I K ) #.X.N ; > g T O.&.3.3.J < < S *.8.%.0 - ; 7 B H H I ] #.) B V n L p t p z x c y e e 3 = * ",
"9 4 = 2 e k M ~ ^ E c p q e V L L / ) X.I 8 ; < g P &.>.O.2.J 7 0 Y 5.5.N < ; 7 N ( X.$.@.;.#.I V K ! L z z p y k 9 1 1 e 4 * @ ",
"4 4 4 y l v x k j k t 5 5 t F ( / I U Z B 0 - ; g T *.4.O...N 7 g T 2.Y f < 0 S ` *.,.>.#.@.) I H K F c z z x y 9 2 * 4 y y 1 1 ",
"r a a l l k 3 * * 9 5 = 5 p / ) L i , , , ; ; ; N ..3.>.%.o.S f g S D S N g N T %.>.#.@.X.U K L L z u 9 e p p 9 1 1 2 y k y 2 4 ",
"y k a a 4 = * * 9 y j 9 t Z ( L 8 o o + < 8 7 d D %.*.3.o.o.N 7 < d N D A h S P U ` $.X.U U ( ) / j & & 5 y p t t y a l l a 4 a ",
"y y r r r 3 3 y x M M j p Z L q , + + < N C C P %.5.6.O.O.N > - < f D T D S S S D U ] ( I U I I Z , @ & 9 z n n n b b R b a 4 a ",
"4 y k k k a x n ~ { L t t j x i u , w Z I I D X.3.7.o.Y S - # > f Y T 2.Y J S J I U P D C B B u @ o @ , z R ~ ~ ^ E E E a r 4 a ",
"k l b E R m M R E M 6 & * i j F K F U +.X.H P T O.o.S d > # # d J 2.2.2.T T T o...( P P C B 7 : & , 9 z L ^ ^ { R M R y 2 2 4 r ",
"k b W Q R l v v x 8 O X % i ~ } } +.[ ] I P P X.$.T N d > > 0 J 2.2.2.T $...O.%.&...( ..( P i 5 8 t c G c c v n c k 1 & & 1 4 r ",
"l b R v y 4 y y 1 * X O 8 c [ =. .] I I U T ] %.%.J N N N N J o.2.2.2.2.o.o.O.*.&.U ( @.@.Z u q B G L 6 5 9 p e 1 & % & 1 4 a a ",
"k k r 3 1 1 5 9 3 9 = 8 j M  . .] F F T @.@.$.&.U N N Y Y Y T 2.2.O.....` o...O.X.U Z ] H 8 q x / ~ z : : 5 t z e 1 1 6 r a a k ",
"4 1 3 3 3 3 t y x x y t c / [ [ L n U ] #.@.T I N w S T T T ..O.O.` ` O.` T ..X.X.J i w w i V / | } x & & 5 x m z e e y r r y 4 ",
"3 t k k k z n M E M j j n n ~ ] K Z I } @.J w w w j Y ..T P T $.%.o...O.` ..X.*.$.B - 0 j Z X.#.:.} p & * t L L k e y e 1 1 2 1 ",
"c m M M R E { { E l j m ~ L ~ I Z c I I K 8 0 w j N T T P P ..*.5.*.X.X.` I *.>...8 8 i K [ ;.:.-.G 9 & & y M M z a k y e 9 3 p ",
"^ _ _ ^ _ _ _ R n c M } | M F z j j C C w * 8 q B D T J D I $.5.6.&.$.X.P X.*.( B N N Z Z K ] ) B t , + : t m ! n v c k k z x M ",
"_ ^ ^ ^ _ ^ m p z M } =.[ 9 j V F c j j i 8 j C Z P U P P T @.*.X...I P ..` ] j q N B w 8 q z z 8 6 % + , x ~ _ ! n z z c n M ^ ",
"L L ! ! ! n p p x M } } 9 % 9 x I Z j j B B P I U ( T I P U ..` N f 8 N w 8 0 8 0 i 0 8 8 z H G Z p : & y ~ =._ G 9 = e n M M ~ ",
"n m n m m z p k m ] { n = , q x F j z P ( ] [ T U U U I U U U P N ; , 8 w , , ; 8 j j B K ) [ ( F p 5 t L =.:.~ 9 O & t n L L c ",
"c F G G c z x F L [ ~ c 9 8 u z Z F K [ [ H K C j j V Z U ..] U B 7 8 g N 7 q 9 j P ( +.#.<.[ Z p q t G | 1.) p @ O * z L L n c ",
"F L Z c x z z z x K c n j 9 j K I K ( ~ F j j i i i D L ) ] ] ( C p z I ( F i N I [ #.,.<.#.t 7 7 9 V ) :.-.z = X O 9 K ~ L Z Z ",
"F L L n F t , % * u j x j t j K I L [ I w 8 i j B H L ) ( / K P H H / +.#.V j Z ) #.+.#.+.K , ; , t L }  .z : O X & z ~ ) L x G ",
"L ) / K p , X O , j F Z t , 8 j j F I x q u j K ) ] | [ I K K K K ( [ } L 8 i V [  .} } [ B ; + 5 B )  ./ e O X @ p I | ( V z H ",
") [ L B 7 O   + q K L V q , 9 i j Z I i i j K ) |  .| / U Z F K L / / j * & t Z ) } } [ / 8 O O q I -.| B , O & u / #.#.L V Z K ",
"/ I q 5 + o O 5 F ) K V B z B V Z L K t j x L ~ [ } [ / Z V Z c L L n 9 & , i L ) ( L L p @ o @ B } ;.I 7 O @ 5 G @.#.| K I I ( ",
"C & @ o O + 5 B / ] G B H / L Z K ~ I z z V K L ~ ^ / c B V c K V K F j @ q z K ! G Z z , X O , H @./ 7 o o - p I [ ] ( ) X.( ( ",
"o . o + , p C I ( ( I K / ] I V I ) ^ Z z z x K L K x x x x c c K ~ ~ z , y z p t 5 5 5 % O , i / ) z & , , p D ( L I ( +.) B 7 ",
"o o $ 8 C ' ) ( ( ) ( I U L K K ) [ ~ K V x c n K x z j k c c K L L ~ z * 1 9 5 9 , : & : , t B F L B p B P ( ) P P I I I u , ; ",
"< , q Z ( $.X.P I X.+.I V V K K / ~ / n z z z z x j x x n n n n n M n 9 & & * 9 9 u e t t z j p j Z K I +.;.@.U i B P ' C q , , ",
"g N N P X.X.I B D ( +.C i B K C Z K K n z t t z x z l n n c n l x n x 9 O & 8 t z c G G F V u 8 z K ) } *.>.) B 7 h P ( U D B A ",
"C q i C ..X.( g h I / i 7 q j j p z Z c p 8 9 y k x c c c x z j z l z 9 & = 9 x ^ ^ { ) G z 5 p V U ) ] +.#.I , : i H ` X.X...T ",
"h 0 N T 2.&.D 0 7 C C 5 ; q V V i p x z j 9 9 t z n c c p y 4 4 y x c p 1 1 e M { | _ n p p p Z L ( / ' +.X.g - < C ( X.&.>.>...",
"0 d I 4.7.T 0 $ < i i u h C ~ I i z x Z z 9 e y c v l a y t 4 2 t x l e = = a ! { _ c t q t x G / I ( X.+.( 7 - q P O.%.*.4.%.P ",
"g S 3.8.%.w $ ; 7 N H H I X. .' z V n K y t y z c l y 9 4 9 1 * e a e & = e v ^ _ ^ x s t t Z L L L ( #.] N ; ; g T O.*.4.*.J i ",
"d Y 5.5.N > ; 7 B ` X.+. .-.#.I Z n / L x j j y k e 1 2 e 4 * & 9 4 = 1 e k m ! ! ~ c p e q Z L L I ) } I q ; < g Y &.4.%.O.J f ",
"N T 2.Y d d 7 S ` &.>.;.#.+.) I H K Z x z k z t 9 1 * 9 y y 1 1 4 4 4 y l c l x s z t 6 5 t Z ) / I I C B 7 - ; i T 3.4.O...N d ",
"N S J A h g h Y %.>.&.#.X.( I L L V t 9 e p z 9 1 1 3 y a y 4 r y a a l l a 3 * , 6 6 : 5 j L [ I t 7 , , ; ; ; N ..*.3.%.o.S N ",
"d d N D A h D P I ' @...I I / ) / z & & 5 y p t y y k l v y 4 a a k k a e = * * 9 y s 9 t V / L 8 o o + 7 8 < w J %.3.3.o.T N d ",
"< f S Y H S D D D T ` ' ` U / / K 8 + & 9 j x G v v m M b a 4 a a y r r e 3 3 e x G L t p F I p , $ O , N C N D $.5.4.2.2.J d > "
};
